<svg width="384" height="102" viewBox="0 0 384 102" fill="none" xmlns="http://www.w3.org/2000/svg">
<g clip-path="url(#clip0_187_3042)">
<path d="M134.657 78.5517C148.359 78.5517 157.66 73.1629 157.66 62.7166C157.66 57.2714 155.423 53.9537 151.971 51.9967C151.038 51.4671 150.962 49.9124 151.84 49.2957C155.197 46.9384 157.245 43.3004 157.245 38.4251C157.245 28.8079 148.775 22.5898 134.657 22.5898H112.332C111.683 22.5898 111.157 23.1149 111.157 23.7623V77.3793C111.157 78.0268 111.683 78.5517 112.332 78.5517H134.657ZM126.519 36.1983C126.519 35.5508 127.046 35.0259 127.694 35.0259H135.488C139.889 35.0259 141.882 36.8498 141.882 39.6686C141.882 42.9019 139.807 44.726 135.488 44.726H127.694C127.046 44.726 126.519 44.201 126.519 43.5535V36.1983ZM126.519 58.3343C126.519 57.6868 127.046 57.1619 127.694 57.1619H135.488C139.807 57.1619 142.298 58.1568 142.298 61.6388C142.298 64.8721 139.807 66.1157 135.488 66.1157H127.694C127.046 66.1157 126.519 65.5908 126.519 64.9433V58.3343Z" fill="white"/>
<path d="M168.834 37.0986C168.186 37.0986 167.66 37.6236 167.66 38.271V77.3795C167.66 78.027 168.186 78.5519 168.834 78.5519H181.434C182.082 78.5519 182.608 78.027 182.608 77.3795V38.271C182.608 37.6236 182.082 37.0986 181.434 37.0986H168.834Z" fill="white"/>
<path d="M216.181 79.8783C218.745 79.8783 222.13 79.3999 224.285 78.4433C224.674 78.2708 224.9 77.8744 224.9 77.4501V66.9236C224.9 66.0351 223.93 65.4363 223.084 65.7106C221.261 66.3015 219.114 66.6133 217.594 66.6133C213.69 66.6133 211.282 64.3748 211.282 60.3954V50.707C211.282 50.0595 211.808 49.5346 212.456 49.5346H223.726C224.375 49.5346 224.9 49.0097 224.9 48.3622V38.271C224.9 37.6236 224.375 37.0986 223.726 37.0986H212.456C211.808 37.0986 211.282 36.5737 211.282 35.9261V27.9078C211.282 27.2602 210.757 26.7354 210.107 26.7354H197.509C196.86 26.7354 196.335 27.2602 196.335 27.9078V35.9261C196.335 36.5737 195.809 37.0986 195.161 37.0986H190.451C189.802 37.0986 189.276 37.6236 189.276 38.271V48.3622C189.276 49.0097 189.802 49.5346 190.451 49.5346H195.161C195.809 49.5346 196.335 50.0595 196.335 50.707V60.8927C196.335 71.9192 202.646 79.8783 216.181 79.8783Z" fill="white"/>
<path d="M248.879 79.8782C259.009 79.8782 267.563 74.2405 267.563 65.5353C267.563 49.949 245.64 54.6747 245.64 49.5345C245.64 48.2909 246.802 47.3789 248.962 47.3789C251.288 47.3789 253.613 48.3917 254.872 50.1393C255.296 50.728 256.097 51.0318 256.728 50.6731L265.337 45.7808C265.885 45.4694 266.093 44.7796 265.764 44.2423C263.128 39.9276 257.816 35.772 248.63 35.772C237.336 35.772 230.693 42.0729 230.693 49.866C230.693 65.9499 252.615 60.8097 252.615 65.867C252.615 67.1935 251.204 68.2713 248.132 68.2713C244.89 68.2713 242.773 67.273 241.293 65.2764C240.907 64.7562 240.2 64.5485 239.634 64.8654L230.889 69.7681C230.323 70.0858 230.12 70.8057 230.471 71.3515C234.107 76.9892 240.009 79.8782 248.879 79.8782Z" fill="white"/>
<path d="M277.014 18.0303C276.366 18.0303 275.84 18.5552 275.84 19.2027V77.3795C275.84 78.027 276.366 78.5519 277.014 78.5519H289.613C290.262 78.5519 290.788 78.027 290.788 77.3795V19.2027C290.788 18.5552 290.262 18.0303 289.613 18.0303H277.014Z" fill="white"/>
<path d="M321.954 79.7953C334.908 79.7953 344.79 69.8465 344.79 57.7422C344.79 45.7207 334.908 35.772 321.954 35.772C308.999 35.772 299.117 45.7207 299.117 57.7422C299.117 69.8465 308.999 79.7953 321.954 79.7953ZM321.954 65.7841C317.22 65.7841 314.065 62.1363 314.065 57.8251C314.065 53.4311 317.22 49.7831 321.954 49.7831C326.687 49.7831 329.843 53.4311 329.843 57.8251C329.843 62.1363 326.687 65.7841 321.954 65.7841Z" fill="white"/>
<path d="M375.046 79.8783C377.609 79.8783 380.994 79.3999 383.15 78.4433C383.537 78.2708 383.765 77.8744 383.765 77.4501V66.9236C383.765 66.0351 382.794 65.4363 381.947 65.7106C380.125 66.3015 377.979 66.6133 376.457 66.6133C372.555 66.6133 370.147 64.3748 370.147 60.3954V50.707C370.147 50.0595 370.673 49.5346 371.321 49.5346H382.591C383.239 49.5346 383.765 49.0097 383.765 48.3622V38.271C383.765 37.6236 383.239 37.0986 382.591 37.0986H371.321C370.673 37.0986 370.147 36.5737 370.147 35.9261V27.9078C370.147 27.2602 369.62 26.7354 368.972 26.7354H356.373C355.725 26.7354 355.199 27.2602 355.199 27.9078V35.9261C355.199 36.5737 354.674 37.0986 354.024 37.0986H349.315C348.666 37.0986 348.141 37.6236 348.141 38.271V48.3622C348.141 49.0097 348.666 49.5346 349.315 49.5346H354.024C354.674 49.5346 355.199 50.0595 355.199 50.707V60.8927C355.199 71.9192 361.511 79.8783 375.046 79.8783Z" fill="white"/>
<path d="M174.973 32.8275C180.161 32.8275 184.367 28.6282 184.367 23.4482C184.367 18.2681 180.161 14.0688 174.973 14.0688C169.784 14.0688 165.578 18.2681 165.578 23.4482C165.578 28.6282 169.784 32.8275 174.973 32.8275Z" fill="url(#paint0_linear_187_3042)"/>
<path fill-rule="evenodd" clip-rule="evenodd" d="M56.367 10.5517C54.4213 10.5517 52.844 8.977 52.844 7.03448V3.51724C52.844 1.57472 51.2668 0 49.3211 0H35.2294C33.2836 0 31.7064 1.57472 31.7064 3.51724V7.03448C31.7064 8.977 30.1292 10.5517 28.1835 10.5517H11.7431H3.52294C1.57728 10.5517 0 12.1264 0 14.069V22.2759C0 24.2183 1.57728 25.7931 3.52294 25.7931H8.22018C10.1659 25.7931 11.7431 27.3678 11.7431 29.3104V39.8621C11.7431 41.8045 10.1659 43.3793 8.22018 43.3793H3.52294C1.57728 43.3793 0 44.954 0 46.8966V55.1035C0 57.0459 1.57728 58.6207 3.52294 58.6207H8.22018C10.1659 58.6207 11.7431 60.1954 11.7431 62.138V72.6897C11.7431 74.6321 10.1659 76.2069 8.22018 76.2069H3.52294C1.57728 76.2069 0 77.7816 0 79.7242V87.9311C0 89.8735 1.57728 91.4483 3.52294 91.4483H11.7431H28.1835C30.1292 91.4483 31.7064 93.023 31.7064 94.9655V98.4828C31.7064 100.425 33.2836 102 35.2294 102H49.3211C51.2668 102 52.844 100.425 52.844 98.4828V94.9655C52.844 93.023 54.4213 91.4483 56.367 91.4483H69.2844C71.2301 91.4483 72.8073 89.8735 72.8073 87.9311V76.2069V58.6207H84.5505C86.4962 58.6207 88.0734 57.0459 88.0734 55.1035V46.8966C88.0734 44.954 86.4962 43.3793 84.5505 43.3793H72.8073V25.7931V14.069C72.8073 12.1264 71.2301 10.5517 69.2844 10.5517H56.367ZM50.4954 29.3104C50.4954 27.3678 48.9182 25.7931 46.9725 25.7931H37.578C35.6323 25.7931 34.055 27.3678 34.055 29.3104V39.8621C34.055 41.8045 35.6323 43.3793 37.578 43.3793H46.9725C48.9182 43.3793 50.4954 41.8045 50.4954 39.8621V29.3104ZM50.4954 62.138C50.4954 60.1954 48.9182 58.6207 46.9725 58.6207H37.578C35.6323 58.6207 34.055 60.1954 34.055 62.138V72.6897C34.055 74.6321 35.6323 76.2069 37.578 76.2069H46.9725C48.9182 76.2069 50.4954 74.6321 50.4954 72.6897V62.138ZM72.8073 43.3793H61.0642C59.1185 43.3793 57.5413 44.954 57.5413 46.8966V55.1035C57.5413 57.0459 59.1185 58.6207 61.0642 58.6207H72.8073V43.3793Z" fill="url(#paint1_linear_187_3042)"/>
</g>
<defs>
<linearGradient id="paint0_linear_187_3042" x1="174.973" y1="14.0688" x2="169.527" y2="31.9421" gradientUnits="userSpaceOnUse">
<stop stop-color="#F0E70E"/>
<stop offset="1" stop-color="#A5EF09"/>
</linearGradient>
<linearGradient id="paint1_linear_187_3042" x1="44.0367" y1="2.40217e-06" x2="10.6649" y2="94.4133" gradientUnits="userSpaceOnUse">
<stop stop-color="#F0E70E"/>
<stop offset="1" stop-color="#A5EF09"/>
</linearGradient>
<clipPath id="clip0_187_3042">
<rect width="384" height="102" fill="white"/>
</clipPath>
</defs>
</svg>
